<svg width="512" height="512" viewBox="0 0 512 512" fill="none" xmlns="http://www.w3.org/2000/svg">
  <rect width="512" height="512" rx="120" fill="url(#gradient)"/>
  <path d="M319.59 156.69a70.83 70.83 0 0 1-55.77-64.25V92h-51.45v205.67a42.89 42.89 0 0 1-77.2 26.74 42.89 42.89 0 0 1 34.31-69.64 43.93 43.93 0 0 1 13.88 2.13v-51.4a102.84 102.84 0 0 0-15-.75A94.33 94.33 0 0 0 74 299.1a94.34 94.34 0 0 0 161.86-66.43V156.56a121.16 121.16 0 0 0 70.77 22.52v-51.4a70.85 70.85 0 0 1-15-.75z" fill="white"/>
  <defs>
    <linearGradient id="gradient" x1="0%" y1="0%" x2="100%" y2="100%">
      <stop offset="0%" stop-color="#ff0050"/>
      <stop offset="50%" stop-color="#25f4ee"/>
      <stop offset="100%" stop-color="#ff0050"/>
    </linearGradient>
  </defs>
</svg>